<svg width="50" height="50" fill="none" xmlns="http://www.w3.org/2000/svg"><path d="M25 50c13.807 0 25-11.193 25-25S38.807 0 25 0 0 11.193 0 25s11.193 25 25 25z" fill="#BFC8D8"/><path d="M21.996 1.236l5.919 9.188M6.094 10.247l10.689 2.385M1.148 27.915l9.276-5.83M10.248 43.904l2.385-10.689M27.915 48.763l-5.919-9.187M43.906 39.752l-10.69-2.385M48.762 22.084l-9.276 5.83M39.752 6.095l-2.385 10.69" stroke="#9FA8B9" stroke-width="2" stroke-miterlimit="10" stroke-linecap="round"/><path d="M24.998 40.46c8.538 0 15.46-6.922 15.46-15.46S33.536 9.541 24.998 9.541 9.54 16.462 9.54 25.001C9.54 33.537 16.46 40.46 25 40.46z" fill="#9FA8B9" stroke="#fff" stroke-width="2" stroke-miterlimit="10"/><path d="M25 29.24a4.24 4.24 0 100-8.48 4.24 4.24 0 000 8.48z" fill="#BFC8D8"/><path d="M35.775 20.406l-2.209 1.06M35.775 22.703l-2.209 1.06M35.775 25l-2.209 1.06M35.775 27.296l-2.209 1.06M16.517 20.406l-2.208 1.06M16.517 22.703l-2.208 1.06M16.517 25l-2.208 1.06M16.517 27.296l-2.208 1.06M29.064 35.777l-1.06-2.208M26.766 35.777l-1.149-2.208M24.38 35.777l-1.06-2.208M22.085 35.777l-1.06-2.208M29.064 16.431l-1.06-2.208M26.766 16.431l-1.149-2.208M24.38 16.431l-1.06-2.208M22.085 16.431l-1.06-2.208" stroke="#BFC8D8" stroke-width="2" stroke-miterlimit="10" stroke-linecap="round"/><path d="M25 27.032a2.032 2.032 0 100-4.064 2.032 2.032 0 000 4.064z" fill="#fff"/></svg>